<svg xmlns="http://www.w3.org/2000/svg" xmlns:svg="http://www.w3.org/2000/svg" viewBox="0 0 270.93332 338.66665" version="1.1" xml:space="preserve" x="0px" y="0px"><g transform="translate(-6054.0776,-9739.8643)"><path style="" d="m 6129.3494,9959.7992 c 0.7924,-1.965 3.7198,-12.0999 4.6428,-16.0735 0.3042,-1.3096 0.7943,-3.3932 1.089,-4.6302 1.3127,-5.5087 2.5377,-13.1056 3.4557,-21.4312 0.5321,-4.8259 0.5983,-6.7513 0.6011,-17.4625 v -12.0385 l -1.1067,-4.498 c -1.2212,-4.9627 -2.7218,-12.2443 -3.408,-16.5364 -0.67,-4.1912 -0.8237,-15.5992 -0.2638,-19.5792 0.7177,-5.1016 2.3838,-11.9018 2.9635,-12.095 0.1362,-0.045 0.5132,1.7942 0.8378,4.088 0.3246,2.2938 0.8738,6.0756 1.2204,8.4039 0.3466,2.3283 0.9427,6.555 1.3246,9.3927 1.7855,13.2665 2.9766,20.0098 4.6578,26.3694 2.5606,9.6864 6.4724,15.7588 13.3503,20.724 1.2737,0.9195 2.4509,1.998 2.6968,2.4708 0.3024,0.581 0.4986,1.9368 0.6383,4.4108 0.1109,1.9645 0.3924,4.4597 0.6256,5.5449 1.5642,7.279 6.9577,11.4459 14.2989,11.047 4.0235,-0.2186 5.7174,-0.7407 13.8979,-4.2833 4.6961,-2.0337 6.8879,-2.7246 9.4702,-2.9851 l 1.9369,-0.1954 -1.0762,-2.1484 c -1.3929,-2.7805 -3.8348,-5.1336 -8.0259,-7.7341 -4.4031,-2.7321 -5.8167,-4.6166 -6.7126,-8.9484 -1.3854,-6.6992 2.0479,-10.3458 11.4117,-12.1209 2.7952,-0.5298 9.3718,-0.5291 12.4669,0 5.4142,0.928 9.4402,2.9134 10.876,5.3634 0.5824,0.9938 0.7276,1.6154 0.8177,3.5017 0.2337,4.8881 -2.0757,9.2018 -6.2127,11.6047 -5.7445,3.3367 -8.1838,5.9211 -9.7331,10.3123 l -0.3756,1.0644 0.9752,0.3134 c 0.5364,0.1724 1.9872,0.857 3.2242,1.5213 4.6969,2.5228 5.3304,2.7744 7.3033,2.9013 2.5255,0.1625 4.5063,-0.6949 6.5464,-2.8338 2.2795,-2.3898 3.4622,-5.2703 4.1578,-10.1261 0.3716,-2.5945 0.2105,-9.4737 -0.2776,-11.8546 -0.9173,-4.4742 -2.1062,-8.1964 -3.9726,-12.4377 -1.0618,-2.4129 -5.4341,-11.2719 -5.8098,-11.7717 -0.1941,-0.2582 -1.5148,-2.709 -4.4921,-8.3366 -3.9357,-7.4385 -6.2981,-13.1753 -7.626,-18.5185 -0.6043,-2.4314 -0.692,-3.3394 -0.7026,-7.276 -0.01,-3.6507 0.079,-4.7905 0.4743,-6.0514 1.6729,-5.3433 5.7657,-9.3441 10.4543,-10.2191 4.8627,-0.9075 9.2559,0.4441 12.4075,3.8173 1.4045,1.5032 2.9157,3.9324 3.3622,5.4046 0.1713,0.5649 0.055,0.5236 -1.2267,-0.4339 -4.289,-3.2048 -9.753,-4.0612 -13.6128,-2.1336 -1.5714,0.7848 -3.411,2.7837 -4.2922,4.6636 -0.6403,1.3662 -0.707,1.7951 -0.6882,4.4233 0.019,2.6673 0.2304,4.0182 1.1896,7.6068 0.1458,0.5457 0.3594,0.9922 0.4747,0.9922 0.1152,0 0.6089,-0.5656 1.097,-1.2568 2.085,-2.9526 4.3749,-5.656 5.2066,-6.1467 2.8026,-1.6536 7.5578,-2.1674 10.3255,-1.1157 2.0149,0.7656 3.834,2.203 4.5159,3.5685 1.2882,2.5793 0.525,6.7447 -1.5595,8.5112 -2.4746,2.097 -7.0985,3.3833 -10.08,2.8041 -2.0089,-0.3903 -4.8573,-1.4973 -6.7909,-2.6391 -0.7817,-0.4615 -1.4746,-0.7857 -1.54,-0.7203 -0.3482,0.3482 4.2389,10.0979 7.9846,16.9708 2.8415,5.2137 6.5548,12.7996 7.6375,15.6024 0.5041,1.3052 1.0255,2.4095 1.1585,2.4538 0.133,0.044 0.3796,-0.4878 0.548,-1.1826 0.1684,-0.6947 0.7888,-3.1086 1.3788,-5.3642 0.59,-2.2556 1.238,-4.8749 1.44,-5.8208 1.4049,-6.5773 1.8175,-8.6593 2.6483,-13.3615 0.8911,-5.0437 1.1326,-6.4806 1.7233,-10.2526 0.4226,-2.6985 1.2647,-8.5118 1.8683,-12.8984 0.5455,-3.964 0.6504,-4.4543 0.8991,-4.2056 0.2763,0.2763 1.502,4.9895 2.1058,8.098 1.6881,8.6896 1.5518,15.9164 -0.4954,26.2701 -1.0739,5.4309 -3.3647,14.4584 -5.2034,20.5052 -0.4425,1.4552 -1.365,4.4913 -2.0501,6.7469 l -1.2456,4.101 0.032,7.9375 c 0.022,5.3806 0.1407,8.4063 0.3691,9.3927 1.017,4.3932 5.1443,17.7706 8.4898,27.5167 3.1124,9.0673 3.1058,9.0485 3.9995,11.371 0.4187,1.0881 0.7613,2.0704 0.7613,2.1828 0,0.1125 -1.6638,0.2045 -3.6973,0.2045 h -3.6974 l -0.3701,-0.7276 c -1.2776,-2.512 -8.4434,-23.9814 -10.0453,-30.0964 -0.3049,-1.1641 -0.5925,-2.1692 -0.6391,-2.2334 -0.047,-0.064 -0.7068,0.4901 -1.4672,1.2318 -1.8928,1.8463 -4.4366,3.4191 -6.6632,4.1196 -1.4841,0.467 -2.4551,0.5811 -4.7735,0.561 -3.2373,-0.028 -5.4545,-0.6154 -8.4667,-2.2426 -5.6801,-3.0685 -5.8932,-3.1561 -7.6745,-3.1561 -2.0703,0 -3.0237,0.3127 -8.5973,2.8205 -6.909,3.1085 -11.4514,4.3081 -16.3492,4.3175 -6.1411,0.012 -10.9559,-1.7352 -14.8096,-5.3733 -3.8971,-3.6791 -5.7722,-8.029 -6.4062,-14.8616 -0.1485,-1.6007 -0.2701,-3.162 -0.2702,-3.4694 -2e-4,-0.3837 -0.5744,-0.9858 -1.8321,-1.921 -1.7468,-1.299 -5.8411,-5.4334 -5.8411,-5.8984 0,-0.1213 -0.1786,-0.2206 -0.3968,-0.2206 -0.3254,0 -0.3976,0.4647 -0.4006,2.5797 0,2.6958 -0.5682,10.8341 -1.0503,15.1474 -1.2742,11.3999 -4.1559,25.0921 -7.427,35.2887 l -1.3263,4.1342 h -3.7236 c -3.4411,0 -3.7095,-0.035 -3.5369,-0.463 z m 68.5712,-55.3641 c 0.2176,0 0.7436,-0.348 1.169,-0.7734 1.3861,-1.386 0.8509,-3.7747 -1.1176,-4.9884 -1.9262,-1.1876 -3.3122,-1.0891 -4.0539,0.2882 -0.4231,0.7857 -0.4407,1.0473 -0.1517,2.2522 0.1799,0.7497 0.5733,1.6763 0.8743,2.0589 0.6085,0.7736 1.9888,1.4742 2.532,1.2852 0.1938,-0.068 0.5304,-0.1227 0.7479,-0.1227 z m 15.9006,-0.5842 c 1.2324,-1.0197 1.8393,-4.5636 0.9498,-5.5465 -0.5542,-0.6124 -2.1256,-0.6369 -3.009,-0.047 -1.2752,0.8515 -2.3678,2.05 -2.6508,2.9074 -0.8263,2.5038 2.5815,4.4472 4.71,2.6861 z m 13.7569,-51.95 c 0.6424,-0.7301 0.7944,-2.1619 0.3229,-3.0429 -0.4073,-0.7611 -1.7599,-1.3689 -2.6241,-1.1791 -1.6436,0.361 -2.4619,2.3641 -1.6134,3.9494 0.7168,1.3394 2.8454,1.4876 3.9146,0.2726 z m -28.6674,102.9373 c 0.1862,-4.8398 0.6985,-10.405 1.3906,-15.1077 l 0.4322,-2.9369 3.8643,-0.1686 c 2.1253,-0.093 5.1541,-0.299 6.7307,-0.4584 1.5765,-0.1594 2.9373,-0.219 3.0239,-0.1324 0.087,0.087 -0.082,0.4834 -0.3739,0.8818 -0.2922,0.3984 -3.7234,5.4868 -7.6249,11.3077 -3.9015,5.8208 -7.2112,10.7024 -7.3549,10.8479 -0.1719,0.1741 -0.202,-1.273 -0.088,-4.2334 z m -19.5911,0.7464 c -1.0396,-1.5747 -2.592,-3.8751 -3.4497,-5.112 -0.8577,-1.2369 -3.2133,-4.6897 -5.2347,-7.6729 -2.0214,-2.9832 -3.9134,-5.7499 -4.2044,-6.1483 -0.2911,-0.3984 -0.4763,-0.7772 -0.4118,-0.8417 0.065,-0.065 1.2034,0.045 2.5308,0.2432 1.3274,0.1983 4.1237,0.4944 6.2139,0.658 2.0902,0.1637 3.9299,0.3393 4.0882,0.3903 0.3226,0.1039 0.6999,2.1671 1.4293,7.8152 0.5332,4.1294 1.1742,12.3316 1.0219,13.076 -0.06,0.2941 -0.7621,-0.5579 -1.9835,-2.4078 z m -17.292,-56.3039 c 0,-0.139 4.1477,-16.5058 4.9965,-19.7164 0.2886,-1.0914 1.0166,-3.8894 1.6178,-6.2177 0.6012,-2.3283 1.4958,-5.6621 1.9879,-7.4083 1.1355,-4.0285 3.0395,-11.783 3.0395,-12.3789 0,-0.2494 -0.056,-0.4534 -0.1241,-0.4534 -0.068,0 -1.0257,0.5885 -2.1277,1.3079 -2.4884,1.6244 -5.7421,2.9011 -7.9092,3.1035 -3.0403,0.2839 -8.1916,-1.2344 -10.5907,-3.1215 -2.0054,-1.5775 -2.6479,-5.7118 -1.306,-8.4046 1.6274,-3.2657 6.2214,-4.895 11.0098,-3.9047 3.5077,0.7254 4.259,1.2633 7.7842,5.5745 1.7223,2.1062 3.2504,3.7962 3.396,3.7557 0.1506,-0.042 0.2969,-1.3648 0.3397,-3.0717 0.1135,-4.5216 -0.866,-7.0775 -3.7204,-9.7087 -2.2365,-2.0615 -4.4708,-2.8314 -8.1375,-2.8039 -3.6433,0.027 -7.0848,1.1333 -10.2254,3.2861 -0.6083,0.417 -1.1755,0.7582 -1.2605,0.7582 -0.285,0 1.3916,-3.0703 2.3926,-4.3818 1.4757,-1.9333 2.936,-3.1634 5.001,-4.2129 2.4596,-1.25 4.8784,-1.6837 7.9776,-1.4304 6.5909,0.5386 11.9691,4.9847 14.285,11.8093 0.586,1.7271 0.7167,2.66 0.8248,5.8887 0.112,3.3456 0.041,4.3104 -0.5544,7.5406 -1.0437,5.6617 -3.7762,14.8982 -6.2715,21.1993 -2.0451,5.1643 -5.4705,12.2977 -8.243,17.1662 -2.2376,3.9294 -4.182,6.6375 -4.182,5.8249 z m 3.654,-47.3374 c 0.7101,-0.6983 0.8686,-2.5356 0.2799,-3.2449 -1.4956,-1.8021 -4.4631,-0.8583 -4.4631,1.4195 0,2.3649 2.5174,3.4634 4.1832,1.8254 z m 19.3647,37.7943 c 0,-0.4105 1.0412,-2.0609 2.4595,-3.8986 2.3779,-3.0812 4.9853,-4.9976 8.9176,-6.5544 2.0563,-0.8142 7.3878,-1.027 9.9058,-0.3955 3.7274,0.9348 6.8354,2.8169 9.5338,5.7734 1.7495,1.9169 2.1043,2.5263 1.2641,2.1709 -2.0908,-0.8844 -6.7339,-2.2666 -8.7779,-2.613 -7.8468,-1.3301 -14.892,0.1926 -21.5024,4.6472 -1.489,1.0034 -1.8005,1.1539 -1.8005,0.87 z m -73.4003,-5.1337 c -2.77,-1.1163 -4.1255,-3.3078 -4.759,-7.6941 -0.9753,-6.7536 -2.5534,-11.4391 -7.1704,-21.2903 -5.9769,-12.7526 -6.4266,-13.9674 -6.6691,-18.0185 -0.3769,-6.2969 1.951,-10.8851 8.5777,-16.9061 3.8799,-3.5252 14.5463,-12.66 18.5982,-15.9276 8.6876,-7.006 15.4819,-10.0917 23.2834,-10.5743 4.2021,-0.26 8.4071,0.6906 13.8035,3.1204 l 2.4619,1.1086 1.723,-0.4271 c 7.7459,-1.9199 12.8678,-2.6757 21.3022,-3.1435 5.5189,-0.3061 13.9523,-0.046 18.6531,0.5759 0.9459,0.1251 2.8509,0.361 4.2333,0.5242 1.3825,0.1632 3.1089,0.3989 3.8365,0.5237 0.7276,0.1249 3.2363,0.5535 5.5748,0.9525 l 4.2519,0.7254 3.1564,-1.3371 c 3.7461,-1.5869 4.3566,-1.7849 7.1252,-2.3103 6.7196,-1.2753 14.7487,0.6665 22.0533,5.3335 3.0445,1.9452 11.8671,8.9792 18.1593,14.4779 1.0164,0.8882 2.2586,1.9721 2.7603,2.4087 3.4387,2.9917 7.4678,6.9168 8.8269,8.5989 2.6497,3.2797 4.1476,7.1899 4.1555,10.8479 0.01,4.0025 -1.314,7.8386 -6.6133,19.1823 -2.1147,4.5268 -3.6587,8.2844 -4.5806,11.1481 -0.8479,2.6339 -1.1735,4.0617 -2.4349,10.68 -0.5369,2.8168 -1.2027,4.3487 -2.4536,5.6449 -1.5059,1.5605 -2.8041,2.1396 -4.8156,2.148 -2.4114,0.01 -3.8592,-0.7525 -6.4823,-3.4146 -3.0933,-3.1394 -5.223,-7.1099 -6.1153,-11.401 -0.4618,-2.2209 -0.3991,-6.874 0.1638,-12.1595 0.3366,-3.1607 0.3298,-8.5911 -0.014,-11.1595 -0.6951,-5.1928 -1.7265,-6.7997 -9.3896,-14.6285 -6.659,-6.803 -8.4947,-9.1877 -10.2837,-13.3593 -1.6138,-3.7632 -2.1678,-8.4197 -1.2137,-10.2023 0.2822,-0.5274 0.4414,-0.563 1.7749,-0.3964 8.285,1.0352 13.8113,5.6864 19.354,16.2894 3.553,6.7969 5.7955,13.5181 6.7698,20.2905 0.56,3.8934 0.7393,9.5968 0.4097,13.0338 -0.5218,5.4412 -0.6279,9.9427 -0.2666,11.3105 0.7778,2.9445 3.9893,8.2182 4.8332,7.9369 0.148,-0.049 0.55,-1.4534 0.8935,-3.1201 0.7436,-3.6088 1.6947,-7.3175 2.5753,-10.0419 0.6034,-1.8671 2.7942,-7.7033 3.3271,-8.8636 0.1337,-0.291 1.6099,-3.4462 3.2804,-7.0114 1.6705,-3.5653 3.2263,-7.2139 3.4574,-8.108 0.8691,-3.3641 0.3001,-7.3658 -1.3563,-9.5373 -2.2523,-2.953 -23.8916,-21.5846 -28.472,-24.5146 -3.7379,-2.3911 -7.6996,-4.0051 -11.4826,-4.6782 -3.3829,-0.6018 -7.7408,0.3241 -12.641,2.6858 -2.9844,1.4383 -3.1853,1.4389 -11.2448,0.031 -14.6035,-2.5509 -26.4905,-2.9865 -38.2338,-1.4013 -3.7614,0.5078 -9.7718,1.7787 -12.7468,2.6954 -2.0814,0.6413 -3.0254,0.4494 -7.1958,-1.4627 -3.7126,-1.7021 -4.3628,-1.93 -6.9111,-2.4225 -2.5957,-0.5016 -3.4,-0.4848 -6.2828,0.1313 -3.6696,0.7841 -8.7905,3.06 -11.8411,5.2625 -4.2823,3.0916 -19.5586,16.131 -24.2629,20.71 -3.9281,3.8234 -4.7383,5.3209 -4.7304,8.7434 0.01,3.5828 0.1693,4.0326 5.1032,14.2463 4.8518,10.0437 7.571,17.8173 8.5116,24.3329 0.232,1.6069 0.433,2.2578 0.6973,2.2578 1.0678,0 4.2411,-5.6835 4.8941,-8.7653 0.4876,-2.3017 0.4868,-3.689 0,-7.6289 -0.837,-6.7102 -0.3713,-14.5499 1.2343,-20.7798 1.1538,-4.4772 1.6647,-6.0743 3.0398,-9.5023 3.8356,-9.5621 8.7286,-16.4466 13.7927,-19.4063 1.9293,-1.1276 5.2017,-2.0674 7.7917,-2.2378 2.7435,-0.1805 2.7351,-0.1894 2.687,2.836 -0.04,2.5375 -0.6409,4.8023 -2.086,7.867 -1.896,4.0207 -3.5602,6.1384 -9.9319,12.6382 -6.1273,6.2506 -7.4619,7.9593 -8.4424,10.8092 -1.1843,3.4423 -1.4102,8.3445 -0.8225,17.85 0.4142,6.6988 0.3072,8.2101 -0.8134,11.4844 -0.7269,2.1238 -2.1444,4.9614 -3.411,6.8282 -1.2237,1.8036 -4.1334,4.5608 -5.6054,5.3118 -1.5679,0.7999 -3.7296,0.9004 -5.3468,0.2487 z" fill="#000000" stroke-width="0.264583"/></g><text x="0" y="285.93332" fill="#000000" font-size="5px" font-weight="bold" font-family="'Helvetica Neue', Helvetica, Arial-Unicode, Arial, Sans-serif">Created by arte ador</text><text x="0" y="290.93332" fill="#000000" font-size="5px" font-weight="bold" font-family="'Helvetica Neue', Helvetica, Arial-Unicode, Arial, Sans-serif">from the Noun Project</text></svg>